<svg id="Layer_1" data-name="Layer 1" xmlns="http://www.w3.org/2000/svg" width="700" height="600" viewBox="0 0 700 600">
  <defs>
    <style>
      .cls-1, .cls-5 {
        opacity: 0.5;
      }

      .cls-1, .cls-4 {
        font-size: 12px;
        font-family: Roboto;
      }

      .cls-1 {
        fill: red;
      }

      .cls-2, .cls-6, .cls-7 {
        fill: none;
        stroke-linecap: round;
      }

      .cls-2 {
        stroke: blue;
        stroke-width: 0.5px;
      }

      .cls-2, .cls-6 {
        stroke-miterlimit: 10;
      }

      .cls-3 {
        fill: blue;
      }

      .cls-6 {
        stroke: #000;
      }

      .cls-7 {
        stroke: red;
        stroke-linejoin: round;
      }
    </style>
  </defs>
  <title>jointprofiles</title>
  <text class="cls-1" transform="translate(546.88 515.31)">O<tspan x="8.75" y="0">R</tspan><tspan x="17.17" y="0">I</tspan><tspan x="21.16" y="0">G</tspan><tspan x="29.73" y="0">I</tspan><tspan x="33.67" y="0">N</tspan><tspan x="42.89" y="0">A</tspan><tspan x="51.34" y="0">L</tspan><tspan x="0" y="14.4">E</tspan><tspan x="7.57" y="14.4">D</tspan><tspan x="16.08" y="14.4">G</tspan><tspan x="24.69" y="14.4">E</tspan></text>
  <text class="cls-1" transform="translate(119.05 515.31)">O<tspan x="8.75" y="0">R</tspan><tspan x="17.17" y="0">I</tspan><tspan x="21.16" y="0">G</tspan><tspan x="29.73" y="0">I</tspan><tspan x="33.67" y="0">N</tspan><tspan x="42.89" y="0">A</tspan><tspan x="51.34" y="0">L</tspan><tspan x="26.19" y="14.4">E</tspan><tspan x="33.76" y="14.4">D</tspan><tspan x="42.27" y="14.4">G</tspan><tspan x="50.88" y="14.4">E</tspan></text>
  <g>
    <line class="cls-2" x1="213.37" y1="186.01" x2="202.07" y2="144.49"/>
    <polygon class="cls-3" points="216.44 181.74 215.56 181.28 213.27 185.64 209.08 183.04 208.55 183.89 213.65 187.06 216.44 181.74"/>
    <polygon class="cls-3" points="206.89 146.61 206.36 147.46 202.18 144.86 199.88 149.22 199 148.76 201.79 143.44 206.89 146.61"/>
  </g>
  <g>
    <line class="cls-2" x1="406.98" y1="86.79" x2="401.53" y2="66.77"/>
    <polygon class="cls-3" points="410.05 82.52 409.17 82.05 406.88 86.42 402.69 83.81 402.16 84.66 407.26 87.83 410.05 82.52"/>
    <polygon class="cls-3" points="406.35 68.9 405.82 69.75 401.63 67.14 399.34 71.51 398.46 71.04 401.25 65.73 406.35 68.9"/>
  </g>
  <text class="cls-4" transform="translate(213.65 165.25)">I<tspan x="3.93" y="0">N</tspan><tspan x="12.93" y="0">S</tspan><tspan x="21.01" y="0">E</tspan><tspan x="28.57" y="0">R</tspan><tspan x="37.08" y="0">T </tspan><tspan x="48.21" y="0">W</tspan><tspan x="59.39" y="0">ID</tspan><tspan x="71.69" y="0">T</tspan><tspan x="79.29" y="0">H</tspan></text>
  <text class="cls-4" transform="translate(414.57 78.77)">H<tspan x="9.09" y="0">O</tspan><tspan x="17.88" y="0">O</tspan><tspan x="26.63" y="0">K </tspan><tspan x="38.56" y="0">W</tspan><tspan x="49.73" y="0">ID</tspan><tspan x="62.03" y="0">T</tspan><tspan x="69.63" y="0">H</tspan></text>
  <path class="cls-2" d="M321.56,111l89.19-24.25"/>
  <path class="cls-2" d="M303.68,92.17l102-27.73"/>
  <text class="cls-4" transform="translate(104.61 367.56)">J<tspan x="7.28" y="0">O</tspan><tspan x="16" y="0">I</tspan><tspan x="19.94" y="0">N</tspan><tspan x="29.11" y="0">T </tspan><tspan x="40.24" y="0">S</tspan><tspan x="48.32" y="0">P</tspan><tspan x="56.06" y="0">A</tspan><tspan x="64.23" y="0">C</tspan><tspan x="72.4" y="0">I</tspan><tspan x="76.33" y="0">N</tspan><tspan x="85.4" y="0">G</tspan></text>
  <g id="joint_1_2_2" data-name="joint 1 2 2">
    <g>
      <line class="cls-2" x1="211.8" y1="325.66" x2="200.7" y2="414.26"/>
      <polygon class="cls-3" points="207.33 328.44 207.97 329.2 211.75 326.04 214.63 330.04 215.44 329.45 211.93 324.58 207.33 328.44"/>
      <polygon class="cls-3" points="197.06 410.47 197.87 409.88 200.75 413.88 204.53 410.72 205.17 411.49 200.57 415.34 197.06 410.47"/>
    </g>
  </g>
  <text class="cls-4" transform="translate(580.12 176.22)">H<tspan x="9.05" y="0">E</tspan><tspan x="16.61" y="0">M </tspan><tspan x="31.31" y="0">O</tspan><tspan x="40.07" y="0">F</tspan><tspan x="47.64" y="0">F</tspan><tspan x="55.18" y="0">S</tspan><tspan x="63.25" y="0">E</tspan><tspan x="71.17" y="0">T</tspan></text>
  <g>
    <line class="cls-2" x1="572.46" y1="177.68" x2="526.62" y2="161.97"/>
    <polygon class="cls-3" points="570.65 172.74 569.76 173.21 572.09 177.56 567.59 179.56 568 180.47 573.48 178.03 570.65 172.74"/>
    <polygon class="cls-3" points="531.08 159.18 531.49 160.09 526.98 162.09 529.31 166.44 528.43 166.91 525.59 161.62 531.08 159.18"/>
  </g>
  <text class="cls-4" transform="translate(189.95 308.01)">M<tspan x="11.21" y="0">A</tspan><tspan x="18.74" y="0">T</tspan><tspan x="26.34" y="0">E</tspan><tspan x="33.91" y="0">R</tspan><tspan x="42.33" y="0">I</tspan><tspan x="46.44" y="0">A</tspan><tspan x="54.89" y="0">L </tspan><tspan x="65.58" y="0">T</tspan><tspan x="73.17" y="0">H</tspan><tspan x="82.18" y="0">I</tspan><tspan x="86.16" y="0">C</tspan><tspan x="94.35" y="0">K</tspan><tspan x="102.85" y="0">N</tspan><tspan x="111.9" y="0">ES</tspan><tspan x="127.7" y="0">S M</tspan></text>
  <g>
    <line class="cls-2" x1="147.53" y1="303.01" x2="164.82" y2="303.01"/>
    <polygon class="cls-3" points="161.51 307.1 160.82 306.37 164.44 303.01 160.82 299.65 161.51 298.92 165.9 303.01 161.51 307.1"/>
  </g>
  <g>
    <line class="cls-2" x1="186.9" y1="303.01" x2="169.61" y2="303.01"/>
    <polygon class="cls-3" points="172.93 298.92 173.61 299.65 170 303.01 173.61 306.37 172.93 307.1 168.53 303.01 172.93 298.92"/>
  </g>
  <g class="cls-5">
    <path id="joint_1" data-name="joint 1" class="cls-6" d="M546.88,103s-40,77.5-40,200,40,200,40,200"/>
    <path id="joint" class="cls-7" d="M176.88,103s40,77.5,40,200-40,200-40,200"/>
    <path id="joint-2" class="cls-7" d="M546.88,103s-40,77.5-40,200,40,200,40,200"/>
    <path class="cls-6" d="M566.82,403.38l11.9,43.76"/>
    <path class="cls-6" d="M565.4,403.38a1.42,1.42,0,1,1,1.42,1.42,1.42,1.42,0,0,1-1.42-1.42h0Z"/>
    <path class="cls-6" d="M577.28,447.16a1.42,1.42,0,1,1,1.42,1.42,1.42,1.42,0,0,1-1.42-1.42h0Z"/>
    <path class="cls-6" d="M556.46,280.32v45.36"/>
    <path class="cls-6" d="M555,280.32a1.42,1.42,0,1,1,1.42,1.42,1.42,1.42,0,0,1-1.42-1.42h0Z"/>
    <path class="cls-6" d="M555,325.68a1.42,1.42,0,1,1,1.42,1.42,1.42,1.42,0,0,1-1.42-1.42h0Z"/>
    <path class="cls-6" d="M578.7,158.84L566.8,202.6"/>
    <path class="cls-6" d="M577.28,158.84a1.42,1.42,0,1,1,1.42,1.42,1.42,1.42,0,0,1-1.42-1.42h0Z"/>
    <path class="cls-6" d="M565.4,202.62a1.42,1.42,0,1,1,1.42,1.42,1.42,1.42,0,0,1-1.42-1.42h0Z"/>
    <path id="joint_1-2" data-name="joint 1-2" class="cls-6" d="M176.88,103h0"/>
    <path id="joint_1_1" data-name="joint 1 1" class="cls-6" d="M176.88,503h0"/>
    <path class="cls-6" d="M205,416.44l131.46,35.72L326,433.84a4.54,4.54,0,0,1,5.12-6.64l30.18,8.2a7.56,7.56,0,0,1,4.58,3.54l14.38,25.12-10.5-18.32a4.54,4.54,0,0,1,5.12-6.64l30.18,8.2a7.56,7.56,0,0,1,4.58,3.54l22.8,39.82a15.12,15.12,0,0,1-5.6,20.64h0L387,534.1a7.56,7.56,0,0,1-5.74.74l-30.18-8.2a4.54,4.54,0,0,1-1.06-8.32l18.32-10.5L343.24,522.2a7.56,7.56,0,0,1-5.74.74l-30.18-8.2a4.54,4.54,0,0,1-1.06-8.32l18.32-10.5L193.44,460.3"/>
    <path id="joint_1_2_1" data-name="joint 1 2 1" class="cls-6" d="M193.44,460.3A301,301,0,0,1,176.88,503"/>
    <path id="joint_1_2_1-2" data-name="joint 1 2 1-2" class="cls-6" d="M212.66,371.32c-2,16.4-4.7,31.48-7.64,45.12"/>
    <path class="cls-6" d="M157,403.38l-11.9,43.76"/>
    <path class="cls-6" d="M155.54,403.38A1.42,1.42,0,1,1,157,404.8a1.42,1.42,0,0,1-1.42-1.42h0Z"/>
    <path class="cls-6" d="M143.64,447.16a1.42,1.42,0,1,1,1.42,1.42,1.42,1.42,0,0,1-1.42-1.42h0Z"/>
    <path class="cls-6" d="M113.18,391.5L101.3,435.26"/>
    <path class="cls-6" d="M111.76,391.5a1.42,1.42,0,1,1,1.42,1.42,1.42,1.42,0,0,1-1.42-1.42h0Z"/>
    <path class="cls-6" d="M99.88,435.26a1.42,1.42,0,1,1,1.42,1.42,1.42,1.42,0,0,1-1.42-1.42h0Z"/>
    <path class="cls-6" d="M216.42,280.32h136l-14.94-14.94a4.54,4.54,0,0,1,3.2-7.74H372a7.56,7.56,0,0,1,5.34,2.22l20.46,20.46-14.94-14.94a4.54,4.54,0,0,1,3.2-7.74h31.28a7.56,7.56,0,0,1,5.34,2.22l32.46,32.46a15.12,15.12,0,0,1,0,21.38l-32.46,32.46a7.56,7.56,0,0,1-5.34,2.22H386.12a4.54,4.54,0,0,1-3.2-7.74l14.94-14.94L377.4,346.16a7.56,7.56,0,0,1-5.34,2.22h-31.3a4.54,4.54,0,0,1-3.2-7.74L352.5,325.7h-136"/>
    <path id="joint_1_2_2-2" data-name="joint 1 2 2" class="cls-6" d="M216.42,325.68c-0.66,16.14-2,31.38-3.76,45.64"/>
    <path id="joint_1_2_2-2-2" data-name="joint 1 2 2-2" class="cls-6" d="M212.66,234.68c1.78,14.26,3.1,29.5,3.76,45.64"/>
    <path class="cls-6" d="M167.3,280.32v45.36"/>
    <path class="cls-6" d="M165.9,280.32a1.42,1.42,0,1,1,1.42,1.42h0A1.42,1.42,0,0,1,165.9,280.32Z"/>
    <path class="cls-6" d="M165.9,325.68a1.42,1.42,0,1,1,1.42,1.42,1.42,1.42,0,0,1-1.42-1.42h0Z"/>
    <path class="cls-6" d="M122,280.32v45.36"/>
    <path class="cls-6" d="M120.54,280.32a1.42,1.42,0,1,1,1.42,1.42h0A1.42,1.42,0,0,1,120.54,280.32Z"/>
    <path class="cls-6" d="M120.54,325.68a1.42,1.42,0,1,1,1.52,1.32H122A1.42,1.42,0,0,1,120.54,325.68Z"/>
    <path class="cls-6" d="M193.44,145.7L324.6,110.06l-18.32-10.5a4.54,4.54,0,0,1,1.06-8.32L337.52,83a7.56,7.56,0,0,1,5.74.74l25.12,14.38L350,87.68a4.54,4.54,0,0,1,1.06-8.32l30.18-8.2a7.56,7.56,0,0,1,5.74.74L426.8,94.7a15.12,15.12,0,0,1,5.6,20.64h0l-22.8,39.82A7.56,7.56,0,0,1,405,158.7L374.88,167a4.54,4.54,0,0,1-5.12-6.64L380.26,142l-14.38,25a7.56,7.56,0,0,1-4.58,3.54l-30.18,8.2a4.54,4.54,0,0,1-5.12-6.58l10.5-18.32L205,189.56"/>
    <path id="joint_1_2" data-name="joint 1 2" class="cls-6" d="M205,189.56c3,13.64,5.6,28.72,7.64,45.12"/>
    <path id="joint_1_2-2" data-name="joint 1 2-2" class="cls-6" d="M176.88,103a300.94,300.94,0,0,1,16.56,42.7"/>
    <path class="cls-6" d="M145.06,158.84L157,202.6"/>
    <path class="cls-6" d="M143.64,158.84a1.42,1.42,0,1,1,1.42,1.42h0A1.42,1.42,0,0,1,143.64,158.84Z"/>
    <path class="cls-6" d="M155.54,202.62A1.42,1.42,0,1,1,157,204h0A1.42,1.42,0,0,1,155.54,202.62Z"/>
    <path class="cls-6" d="M101.3,170.74l11.9,43.76"/>
    <path class="cls-6" d="M99.88,170.74a1.42,1.42,0,1,1,1.42,1.42h0A1.42,1.42,0,0,1,99.88,170.74Z"/>
    <path class="cls-6" d="M111.76,214.5a1.42,1.42,0,1,1,1.42,1.42h0A1.42,1.42,0,0,1,111.76,214.5Z"/>
  </g>
</svg>
