<svg id="Layer_1" data-name="Layer 1" xmlns="http://www.w3.org/2000/svg" width="700" height="600" viewBox="0 0 700 600">
  <defs>
    <style>
      .cls-1 {
        opacity: 0.6;
      }

      .cls-2, .cls-3, .cls-4 {
        fill: none;
        stroke-linecap: round;
      }

      .cls-2 {
        stroke: red;
        stroke-linejoin: round;
      }

      .cls-3 {
        stroke: #000;
      }

      .cls-3, .cls-4 {
        stroke-miterlimit: 10;
      }

      .cls-4 {
        stroke: blue;
        stroke-width: 0.5px;
      }

      .cls-5 {
        fill: blue;
      }

      .cls-6, .cls-7 {
        font-size: 12px;
        font-family: Roboto;
      }

      .cls-7 {
        opacity: 0.5;
        fill: red;
      }
    </style>
  </defs>
  <title>jointprofiles</title>
  <g class="cls-1">
    <path id="joint" class="cls-2" d="M168.5,93s40,77.5,40,200-40,200-40,200"/>
    <path id="joint-2" class="cls-2" d="M568.5,93s-40,77.5-40,200,40,200,40,200"/>
    <path class="cls-3" d="M568.5,93l-40.3-20.8c-8.6,21.22-17.18,42.42-23.58,63.36A449,449,0,0,0,490.74,198,626.9,626.9,0,0,0,484,261.27a607.82,607.82,0,0,0,0,63.46A530.94,530.94,0,0,0,490.76,388c3.6,21,8.74,41.72,13.88,62.48s14.36,42,23.58,63.36L568.5,493"/>
    <path class="cls-3" d="M544.66,405.27L556.56,449"/>
    <path class="cls-3" d="M543.24,405.27a1.42,1.42,0,1,1,1.42,1.42,1.42,1.42,0,0,1-1.42-1.42h0Z"/>
    <path class="cls-3" d="M555.14,449a1.42,1.42,0,1,1,1.42,1.42,1.42,1.42,0,0,1-1.42-1.42h0Z"/>
    <path class="cls-3" d="M532.72,270.31v45.36"/>
    <path class="cls-3" d="M531.3,270.31a1.42,1.42,0,1,1,1.42,1.42,1.42,1.42,0,0,1-1.42-1.42h0Z"/>
    <path class="cls-3" d="M531.3,315.67a1.42,1.42,0,1,1,1.42,1.42,1.42,1.42,0,0,1-1.42-1.42h0Z"/>
    <path class="cls-3" d="M556.56,137l-11.9,43.76"/>
    <path class="cls-3" d="M555.14,137a1.42,1.42,0,1,1,1.42,1.42,1.42,1.42,0,0,1-1.42-1.42h0Z"/>
    <path class="cls-3" d="M543.24,180.71a1.42,1.42,0,1,1,1.42,1.42,1.42,1.42,0,0,1-1.42-1.42h0Z"/>
    <path id="joint_1" data-name="joint 1" class="cls-3" d="M168.5,93h0"/>
    <path id="joint_1_1" data-name="joint 1 1" class="cls-3" d="M168.5,493h0"/>
    <path class="cls-3" d="M196.64,406.43l44,12L230,400a4.54,4.54,0,0,1,5.12-6.64l30.18,8.2a7.56,7.56,0,0,1,4.7,3.54l14.38,25.12-10.5-18.32a4.54,4.54,0,0,1,5.12-6.64l30.18,8.2a7.56,7.56,0,0,1,4.58,3.54l22.8,39.82a15.12,15.12,0,0,1-5.6,20.64h0l-39.82,22.8a7.56,7.56,0,0,1-5.74.74l-30.18-8.2a4.54,4.54,0,0,1-1.06-8.32L272.48,474l-25.12,14.38a7.56,7.56,0,0,1-5.74.74L211.42,481a4.54,4.54,0,0,1-1.06-8.32l18.32-10.5-43.62-11.86"/>
    <path id="joint_1_2_1" data-name="joint 1 2 1" class="cls-3" d="M185.06,450.29A301,301,0,0,1,168.5,493"/>
    <path id="joint_1_2_1-2" data-name="joint 1 2 1-2" class="cls-3" d="M204.28,361.31c-2,16.4-4.7,31.48-7.64,45.12"/>
    <path class="cls-3" d="M148.58,393.37l-11.9,43.76"/>
    <path class="cls-3" d="M147.16,393.37a1.42,1.42,0,1,1,1.42,1.42,1.42,1.42,0,0,1-1.42-1.42h0Z"/>
    <path class="cls-3" d="M135.26,437.15a1.42,1.42,0,1,1,1.42,1.42,1.42,1.42,0,0,1-1.42-1.42h0Z"/>
    <path class="cls-3" d="M104.8,381.49L92.92,425.25"/>
    <path class="cls-3" d="M103.38,381.49a1.42,1.42,0,1,1,1.42,1.42,1.42,1.42,0,0,1-1.42-1.42h0Z"/>
    <path class="cls-3" d="M91.5,425.25a1.42,1.42,0,1,1,1.42,1.42,1.42,1.42,0,0,1-1.42-1.42h0Z"/>
    <path class="cls-3" d="M208,270.31h45.4l-14.94-14.94a4.54,4.54,0,0,1,3.2-7.74h31.28a7.56,7.56,0,0,1,5.34,2.22l20.46,20.46L283.8,255.37a4.54,4.54,0,0,1,3.2-7.74h31.28a7.56,7.56,0,0,1,5.34,2.22L356,282.31a15.12,15.12,0,0,1,0,21.38l-32.46,32.46a7.56,7.56,0,0,1-5.34,2.22H287a4.54,4.54,0,0,1-3.2-7.74l14.94-14.94-20.48,20.44a7.56,7.56,0,0,1-5.34,2.22H241.66a4.54,4.54,0,0,1-3.2-7.74l14.94-14.94H208"/>
    <path id="joint_1_2_2" data-name="joint 1 2 2" class="cls-3" d="M204.24,361.31c1.76-14.26,3.1-29.5,3.76-45.64"/>
    <path id="joint_1_2_2-2" data-name="joint 1 2 2-2" class="cls-3" d="M204.28,224.67c1.72,14.32,3.1,29.5,3.72,45.64"/>
    <path class="cls-3" d="M158.92,270.31v45.36"/>
    <path class="cls-3" d="M157.52,270.31a1.42,1.42,0,1,1,1.42,1.42h0A1.42,1.42,0,0,1,157.52,270.31Z"/>
    <path class="cls-3" d="M157.52,315.67a1.42,1.42,0,1,1,1.42,1.42,1.42,1.42,0,0,1-1.42-1.42h0Z"/>
    <path class="cls-3" d="M113.58,270.31v45.36"/>
    <path class="cls-3" d="M112.16,270.31a1.42,1.42,0,1,1,1.42,1.42h0A1.42,1.42,0,0,1,112.16,270.31Z"/>
    <path class="cls-3" d="M112.16,315.67a1.42,1.42,0,1,1,1.42,1.42,1.42,1.42,0,0,1-1.42-1.42h0Z"/>
    <path class="cls-3" d="M185.06,135.69l43.62-11.86-18.32-10.5a4.54,4.54,0,0,1,1.06-8.34l30.18-8.2a7.56,7.56,0,0,1,5.74.74l25.12,14.38-18.32-10.5a4.54,4.54,0,0,1,1.06-8.32L285.36,85a7.56,7.56,0,0,1,5.74.74l39.82,22.8a15.12,15.12,0,0,1,5.6,20.64h0L313.72,169a7.56,7.56,0,0,1-4.58,3.54L279,180.73a4.54,4.54,0,0,1-5.12-6.64l10.5-18.32L270,180.83a7.56,7.56,0,0,1-4.58,3.54l-30.22,8.2a4.54,4.54,0,0,1-5.2-6.64l10.5-18.32-44,12"/>
    <path id="joint_1_2" data-name="joint 1 2" class="cls-3" d="M196.64,179.55c2.94,13.66,5.58,28.74,7.64,45.12"/>
    <path id="joint_1_2-2" data-name="joint 1 2-2" class="cls-3" d="M168.5,93a300.94,300.94,0,0,1,16.56,42.7"/>
    <path class="cls-3" d="M136.68,148.83l11.9,43.76"/>
    <path class="cls-3" d="M135.26,148.83a1.42,1.42,0,1,1,1.42,1.42h0A1.42,1.42,0,0,1,135.26,148.83Z"/>
    <path class="cls-3" d="M147.16,192.61a1.42,1.42,0,1,1,1.42,1.42h0A1.42,1.42,0,0,1,147.16,192.61Z"/>
    <path class="cls-3" d="M92.92,160.73l11.88,43.76"/>
    <path class="cls-3" d="M91.5,160.73a1.42,1.42,0,1,1,1.42,1.42h0A1.42,1.42,0,0,1,91.5,160.73Z"/>
    <path class="cls-3" d="M103.38,204.49a1.42,1.42,0,1,1,1.42,1.42h0A1.42,1.42,0,0,1,103.38,204.49Z"/>
  </g>
  <g>
    <line class="cls-4" x1="201.01" y1="177.1" x2="189.72" y2="135.57"/>
    <polygon class="cls-5" points="204.09 172.83 203.21 172.36 200.91 176.73 196.73 174.13 196.2 174.97 201.3 178.15 204.09 172.83"/>
    <polygon class="cls-5" points="194.54 137.7 194.01 138.55 189.82 135.94 187.53 140.31 186.65 139.84 189.44 134.53 194.54 137.7"/>
  </g>
  <g>
    <line class="cls-4" x1="314.39" y1="99.51" x2="308.95" y2="79.5"/>
    <polygon class="cls-5" points="317.47 95.24 316.58 94.77 314.29 99.14 310.11 96.54 309.58 97.39 314.68 100.56 317.47 95.24"/>
    <polygon class="cls-5" points="313.77 81.62 313.24 82.47 309.05 79.87 306.76 84.23 305.88 83.77 308.67 78.45 313.77 81.62"/>
  </g>
  <text class="cls-6" transform="translate(201.3 156.34)">I<tspan x="3.93" y="0">N</tspan><tspan x="12.93" y="0">S</tspan><tspan x="21.01" y="0">E</tspan><tspan x="28.57" y="0">R</tspan><tspan x="37.08" y="0">T </tspan><tspan x="48.21" y="0">W</tspan><tspan x="59.39" y="0">ID</tspan><tspan x="71.69" y="0">T</tspan><tspan x="79.29" y="0">H</tspan></text>
  <text class="cls-6" transform="translate(95 357.98)">J<tspan x="7.28" y="0">O</tspan><tspan x="16" y="0">I</tspan><tspan x="19.94" y="0">N</tspan><tspan x="29.11" y="0">T </tspan><tspan x="40.24" y="0">S</tspan><tspan x="48.32" y="0">P</tspan><tspan x="56.06" y="0">A</tspan><tspan x="64.23" y="0">C</tspan><tspan x="72.4" y="0">I</tspan><tspan x="76.33" y="0">N</tspan><tspan x="85.4" y="0">G</tspan></text>
  <text class="cls-6" transform="translate(181.55 296)">M<tspan x="11.21" y="0">A</tspan><tspan x="18.74" y="0">T</tspan><tspan x="26.34" y="0">E</tspan><tspan x="33.91" y="0">R</tspan><tspan x="42.33" y="0">I</tspan><tspan x="46.44" y="0">A</tspan><tspan x="54.89" y="0">L </tspan><tspan x="65.58" y="0">T</tspan><tspan x="73.17" y="0">H</tspan><tspan x="82.18" y="0">I</tspan><tspan x="86.16" y="0">C</tspan><tspan x="94.35" y="0">K</tspan><tspan x="102.85" y="0">N</tspan><tspan x="111.9" y="0">ES</tspan><tspan x="127.7" y="0">S M</tspan></text>
  <text class="cls-6" transform="translate(321.99 91.49)">H<tspan x="9.09" y="0">O</tspan><tspan x="17.88" y="0">O</tspan><tspan x="26.63" y="0">K </tspan><tspan x="38.56" y="0">W</tspan><tspan x="49.73" y="0">ID</tspan><tspan x="62.03" y="0">T</tspan><tspan x="69.63" y="0">H</tspan></text>
  <text class="cls-6" transform="translate(555.14 69.44)">H<tspan x="9.05" y="0">E</tspan><tspan x="16.61" y="0">M </tspan><tspan x="31.31" y="0">O</tspan><tspan x="40.07" y="0">F</tspan><tspan x="47.64" y="0">F</tspan><tspan x="55.18" y="0">S</tspan><tspan x="63.25" y="0">E</tspan><tspan x="71.17" y="0">T</tspan></text>
  <text class="cls-7" transform="translate(568.5 505.81)">O<tspan x="8.75" y="0">R</tspan><tspan x="17.17" y="0">I</tspan><tspan x="21.16" y="0">G</tspan><tspan x="29.73" y="0">I</tspan><tspan x="33.67" y="0">N</tspan><tspan x="42.89" y="0">A</tspan><tspan x="51.34" y="0">L</tspan><tspan x="0" y="14.4">E</tspan><tspan x="7.57" y="14.4">D</tspan><tspan x="16.08" y="14.4">G</tspan><tspan x="24.69" y="14.4">E</tspan></text>
  <text class="cls-7" transform="translate(111.48 505.81)">O<tspan x="8.75" y="0">R</tspan><tspan x="17.17" y="0">I</tspan><tspan x="21.16" y="0">G</tspan><tspan x="29.73" y="0">I</tspan><tspan x="33.67" y="0">N</tspan><tspan x="42.89" y="0">A</tspan><tspan x="51.34" y="0">L</tspan><tspan x="26.19" y="14.4">E</tspan><tspan x="33.76" y="14.4">D</tspan><tspan x="42.27" y="14.4">G</tspan><tspan x="50.88" y="14.4">E</tspan></text>
  <path class="cls-4" d="M229,123.75L318.17,99.5"/>
  <path class="cls-4" d="M211.1,104.9l102-27.73"/>
  <g id="joint_1_2_2-2-2" data-name="joint 1 2 2">
    <g>
      <line class="cls-4" x1="202.19" y1="316.07" x2="191.09" y2="404.68"/>
      <polygon class="cls-5" points="197.72 318.85 198.36 319.62 202.14 316.45 205.02 320.45 205.83 319.87 202.32 314.99 197.72 318.85"/>
      <polygon class="cls-5" points="187.45 400.88 188.26 400.3 191.14 404.3 194.92 401.13 195.56 401.9 190.96 405.75 187.45 400.88"/>
    </g>
  </g>
  <g>
    <line class="cls-4" x1="570.28" y1="85.95" x2="531.91" y2="66.15"/>
    <polygon class="cls-5" points="569.22 80.8 568.27 81.14 569.94 85.78 565.19 87.1 565.46 88.07 571.25 86.45 569.22 80.8"/>
    <polygon class="cls-5" points="536.73 64.03 537 65 532.25 66.32 533.92 70.96 532.98 71.3 530.95 65.65 536.73 64.03"/>
  </g>
  <g>
    <line class="cls-4" x1="139.13" y1="291" x2="156.42" y2="291"/>
    <polygon class="cls-5" points="153.1 295.09 152.42 294.36 156.03 291 152.42 287.64 153.1 286.91 157.5 291 153.1 295.09"/>
  </g>
  <g>
    <line class="cls-4" x1="178.5" y1="291" x2="161.21" y2="291"/>
    <polygon class="cls-5" points="164.52 286.91 165.21 287.64 161.59 291 165.21 294.36 164.52 295.09 160.13 291 164.52 286.91"/>
  </g>
</svg>
