<svg id="Layer_1" data-name="Layer 1" xmlns="http://www.w3.org/2000/svg" width="700" height="600" viewBox="0 0 700 600">
  <defs>
    <style>
      .cls-1, .cls-7 {
        opacity: 0.5;
      }

      .cls-2, .cls-3, .cls-4 {
        fill: none;
        stroke-linecap: round;
      }

      .cls-2 {
        stroke: red;
        stroke-linejoin: round;
      }

      .cls-3 {
        stroke: #000;
      }

      .cls-3, .cls-4 {
        stroke-miterlimit: 10;
      }

      .cls-4 {
        stroke: blue;
        stroke-width: 0.5px;
      }

      .cls-5 {
        fill: blue;
      }

      .cls-6, .cls-7 {
        font-size: 12px;
        font-family: Roboto;
      }

      .cls-7 {
        fill: red;
      }
    </style>
  </defs>
  <title>jointprofiles</title>
  <g class="cls-1">
    <path id="joint" class="cls-2" d="M170,100V500"/>
    <path id="joint-2" class="cls-2" d="M530,100V500"/>
    <g id="_0_joint" data-name=" 0 joint">
      <path class="cls-3" d="M150,100h48.36v80H150v80h48.36v80H150v80h48.36v80H150"/>
    </g>
    <g id="_1_joint" data-name=" 1 joint">
      <path class="cls-3" d="M550,100h0v80H501.64v80H550v80H501.64v80H550v80h0"/>
    </g>
  </g>
  <g>
    <line class="cls-4" x1="184.18" y1="100.28" x2="184.18" y2="178.92"/>
    <polygon class="cls-5" points="180.09 103.59 180.82 104.28 184.18 100.66 187.54 104.28 188.27 103.59 184.18 99.19 180.09 103.59"/>
    <polygon class="cls-5" points="180.09 175.6 180.82 174.92 184.18 178.53 187.54 174.92 188.27 175.6 184.18 180 180.09 175.6"/>
  </g>
  <text class="cls-6" transform="translate(86.27 143.12)">F<tspan x="7.53" y="0">I</tspan><tspan x="11.46" y="0">N</tspan><tspan x="20.53" y="0">G</tspan><tspan x="29.14" y="0">E</tspan><tspan x="36.71" y="0">R </tspan><tspan x="48.85" y="0">W</tspan><tspan x="60.02" y="0">ID</tspan><tspan x="72.32" y="0">T</tspan><tspan x="79.92" y="0">H</tspan></text>
  <text class="cls-7" transform="translate(111.48 515.59)">O<tspan x="8.75" y="0">R</tspan><tspan x="17.17" y="0">I</tspan><tspan x="21.16" y="0">G</tspan><tspan x="29.73" y="0">I</tspan><tspan x="33.67" y="0">N</tspan><tspan x="42.89" y="0">A</tspan><tspan x="51.34" y="0">L</tspan><tspan x="26.19" y="14.4">E</tspan><tspan x="33.76" y="14.4">D</tspan><tspan x="42.27" y="14.4">G</tspan><tspan x="50.88" y="14.4">E</tspan></text>
  <text class="cls-7" transform="translate(530 515.59)">O<tspan x="8.75" y="0">R</tspan><tspan x="17.17" y="0">I</tspan><tspan x="21.16" y="0">G</tspan><tspan x="29.73" y="0">I</tspan><tspan x="33.67" y="0">N</tspan><tspan x="42.89" y="0">A</tspan><tspan x="51.34" y="0">L</tspan><tspan x="0" y="14.4">E</tspan><tspan x="7.57" y="14.4">D</tspan><tspan x="16.08" y="14.4">G</tspan><tspan x="24.69" y="14.4">E</tspan></text>
</svg>
