<svg id="Layer_1" data-name="Layer 1" xmlns="http://www.w3.org/2000/svg" width="700" height="600" viewBox="0 0 700 600">
  <defs>
    <style>
      .cls-1, .cls-5 {
        opacity: 0.5;
      }

      .cls-1, .cls-2 {
        font-size: 12px;
        font-family: Roboto;
      }

      .cls-1 {
        fill: red;
      }

      .cls-3, .cls-6, .cls-7 {
        fill: none;
        stroke-linecap: round;
      }

      .cls-3 {
        stroke: blue;
        stroke-width: 0.5px;
      }

      .cls-3, .cls-7 {
        stroke-miterlimit: 10;
      }

      .cls-4 {
        fill: blue;
      }

      .cls-6 {
        stroke: red;
        stroke-linejoin: round;
      }

      .cls-7 {
        stroke: #000;
      }
    </style>
  </defs>
  <title>jointprofiles</title>
  <text class="cls-1" transform="translate(261.99 537.31)">O<tspan x="8.75" y="0">R</tspan><tspan x="17.17" y="0">I</tspan><tspan x="21.16" y="0">G</tspan><tspan x="29.73" y="0">I</tspan><tspan x="33.67" y="0">N</tspan><tspan x="42.89" y="0">A</tspan><tspan x="51.34" y="0">L</tspan><tspan x="26.19" y="14.4">E</tspan><tspan x="33.76" y="14.4">D</tspan><tspan x="42.27" y="14.4">G</tspan><tspan x="50.88" y="14.4">E</tspan></text>
  <text class="cls-2" transform="translate(358.15 219.42)">I<tspan x="3.93" y="0">N</tspan><tspan x="12.93" y="0">S</tspan><tspan x="21.01" y="0">E</tspan><tspan x="28.57" y="0">R</tspan><tspan x="37.08" y="0">T </tspan><tspan x="48.21" y="0">W</tspan><tspan x="59.39" y="0">ID</tspan><tspan x="71.69" y="0">T</tspan><tspan x="79.29" y="0">H</tspan></text>
  <text class="cls-2" transform="translate(580.12 186.27)">H<tspan x="9.09" y="0">O</tspan><tspan x="17.88" y="0">O</tspan><tspan x="26.63" y="0">K </tspan><tspan x="38.56" y="0">W</tspan><tspan x="49.73" y="0">ID</tspan><tspan x="62.03" y="0">T</tspan><tspan x="69.63" y="0">H</tspan></text>
  <text class="cls-2" transform="translate(406.12 153.95)">H<tspan x="9.09" y="0">O</tspan><tspan x="17.88" y="0">O</tspan><tspan x="26.63" y="0">K </tspan><tspan x="38.56" y="0">C</tspan><tspan x="46.85" y="0">O</tspan><tspan x="55.64" y="0">U</tspan><tspan x="64.41" y="0">N</tspan><tspan x="73.59" y="0">T</tspan></text>
  <text class="cls-2" transform="translate(196.61 318.9)">J<tspan x="7.28" y="0">O</tspan><tspan x="16" y="0">I</tspan><tspan x="19.94" y="0">N</tspan><tspan x="29.11" y="0">T </tspan><tspan x="40.24" y="0">S</tspan><tspan x="48.32" y="0">P</tspan><tspan x="56.06" y="0">A</tspan><tspan x="64.23" y="0">C</tspan><tspan x="72.4" y="0">I</tspan><tspan x="76.33" y="0">N</tspan><tspan x="85.4" y="0">G</tspan></text>
  <text class="cls-2" transform="translate(161.03 219.42)">M<tspan x="11.21" y="0">A</tspan><tspan x="18.74" y="0">T</tspan><tspan x="26.34" y="0">E</tspan><tspan x="33.91" y="0">R</tspan><tspan x="42.33" y="0">I</tspan><tspan x="46.44" y="0">A</tspan><tspan x="54.89" y="0">L </tspan><tspan x="65.58" y="0">T</tspan><tspan x="73.17" y="0">H</tspan><tspan x="82.18" y="0">I</tspan><tspan x="86.16" y="0">C</tspan><tspan x="94.35" y="0">K</tspan><tspan x="102.85" y="0">N</tspan><tspan x="111.9" y="0">ES</tspan><tspan x="127.7" y="0">S M</tspan></text>
  <g>
    <line class="cls-3" x1="118.61" y1="214.42" x2="135.9" y2="214.42"/>
    <polygon class="cls-4" points="132.59 218.51 131.91 217.78 135.52 214.42 131.91 211.06 132.59 210.33 136.99 214.42 132.59 218.51"/>
  </g>
  <g>
    <line class="cls-3" x1="157.99" y1="214.42" x2="140.7" y2="214.42"/>
    <polygon class="cls-4" points="144.01 210.33 144.69 211.06 141.08 214.42 144.69 217.78 144.01 218.51 139.61 214.42 144.01 210.33"/>
  </g>
  <g class="cls-5">
    <path id="joint" class="cls-6" d="M319.82,115.28v400"/>
    <path id="joint_1" data-name="joint 1" class="cls-7" d="M319.82,115.28h0"/>
    <path id="joint_1_1" data-name="joint 1 1" class="cls-7" d="M319.82,515.3h0"/>
    <path class="cls-7" d="M319.82,392.62h45.35l-14.93-14.93a4.54,4.54,0,0,1,3.21-7.74h31.27a7.56,7.56,0,0,1,5.35,2.21l20.46,20.46L395.6,377.69a4.54,4.54,0,0,1,3.21-7.74h31.27a7.56,7.56,0,0,1,5.35,2.21l20.46,20.46L441,377.69a4.54,4.54,0,0,1,3.21-7.74h31.27a7.56,7.56,0,0,1,5.35,2.21l20.46,20.46-14.93-14.93a4.54,4.54,0,0,1,3.21-7.74h31.27a7.56,7.56,0,0,1,5.35,2.21l32.45,32.45a15.12,15.12,0,0,1,0,21.38l-32.45,32.45a7.56,7.56,0,0,1-5.35,2.21H489.51a4.54,4.54,0,0,1-3.21-7.74L501.24,438l-20.46,20.46a7.56,7.56,0,0,1-5.35,2.21H444.16a4.54,4.54,0,0,1-3.21-7.74L455.89,438l-20.46,20.46a7.56,7.56,0,0,1-5.35,2.21H398.8a4.54,4.54,0,0,1-3.21-7.74L410.53,438l-20.46,20.46a7.56,7.56,0,0,1-5.35,2.21H353.45a4.54,4.54,0,0,1-3.21-7.74L365.18,438H319.82"/>
    <path id="joint_1_2_1" data-name="joint 1 2 1" class="cls-7" d="M319.82,438V515.3"/>
    <path id="joint_1_2_1-2" data-name="joint 1 2 1" class="cls-7" d="M319.82,315.3v77.33"/>
    <path class="cls-7" d="M274.47,392.62V438"/>
    <path class="cls-7" d="M273.05,392.62a1.42,1.42,0,1,1,1.42,1.42A1.42,1.42,0,0,1,273.05,392.62Z"/>
    <path class="cls-7" d="M273.05,438a1.42,1.42,0,1,1,1.42,1.42A1.42,1.42,0,0,1,273.05,438Z"/>
    <path class="cls-7" d="M229.12,392.62V438"/>
    <path class="cls-7" d="M227.7,392.62a1.42,1.42,0,1,1,1.42,1.42A1.42,1.42,0,0,1,227.7,392.62Z"/>
    <path class="cls-7" d="M227.7,438a1.42,1.42,0,1,1,1.42,1.42A1.42,1.42,0,0,1,227.7,438Z"/>
    <path class="cls-7" d="M183.76,392.62V438"/>
    <path class="cls-7" d="M182.34,392.62a1.42,1.42,0,1,1,1.42,1.42A1.42,1.42,0,0,1,182.34,392.62Z"/>
    <path class="cls-7" d="M182.34,438a1.42,1.42,0,1,1,1.42,1.42A1.42,1.42,0,0,1,182.34,438Z"/>
    <path class="cls-7" d="M138.41,392.62V438"/>
    <path class="cls-7" d="M137,392.62a1.42,1.42,0,1,1,1.42,1.42A1.42,1.42,0,0,1,137,392.62Z"/>
    <path class="cls-7" d="M137,438a1.42,1.42,0,1,1,1.42,1.42A1.42,1.42,0,0,1,137,438Z"/>
    <path class="cls-7" d="M319.82,192.62h45.35l-14.93-14.93a4.54,4.54,0,0,1,3.21-7.74h31.27a7.56,7.56,0,0,1,5.35,2.21l20.46,20.46L395.6,177.68a4.54,4.54,0,0,1,3.21-7.74h31.27a7.56,7.56,0,0,1,5.35,2.21l20.46,20.46L441,177.68a4.54,4.54,0,0,1,3.21-7.74h31.27a7.56,7.56,0,0,1,5.35,2.21l20.46,20.46-14.93-14.93a4.54,4.54,0,0,1,3.21-7.74h31.27a7.56,7.56,0,0,1,5.35,2.21l32.45,32.45a15.12,15.12,0,0,1,0,21.38l-32.45,32.45a7.56,7.56,0,0,1-5.35,2.21H489.51a4.54,4.54,0,0,1-3.21-7.74L501.24,238l-20.46,20.46a7.56,7.56,0,0,1-5.35,2.21H444.16a4.54,4.54,0,0,1-3.21-7.74L455.89,238l-20.46,20.46a7.56,7.56,0,0,1-5.35,2.21H398.8a4.54,4.54,0,0,1-3.21-7.74L410.53,238l-20.46,20.46a7.56,7.56,0,0,1-5.35,2.21H353.45a4.54,4.54,0,0,1-3.21-7.74L365.18,238H319.82"/>
    <path id="joint_1_2" data-name="joint 1 2" class="cls-7" d="M319.82,238V315.3"/>
    <path id="joint_1_2-2" data-name="joint 1 2" class="cls-7" d="M319.82,115.29v77.33"/>
    <path class="cls-7" d="M274.47,192.62V238"/>
    <path class="cls-7" d="M273.05,192.62a1.42,1.42,0,1,1,1.42,1.42A1.42,1.42,0,0,1,273.05,192.62Z"/>
    <path class="cls-7" d="M273.05,238a1.42,1.42,0,1,1,1.42,1.42A1.42,1.42,0,0,1,273.05,238Z"/>
    <path class="cls-7" d="M229.12,192.62V238"/>
    <path class="cls-7" d="M227.7,192.62a1.42,1.42,0,1,1,1.42,1.42A1.42,1.42,0,0,1,227.7,192.62Z"/>
    <path class="cls-7" d="M227.7,238a1.42,1.42,0,1,1,1.42,1.42A1.42,1.42,0,0,1,227.7,238Z"/>
    <path class="cls-7" d="M183.76,192.62V238"/>
    <path class="cls-7" d="M182.34,192.62a1.42,1.42,0,1,1,1.42,1.42A1.42,1.42,0,0,1,182.34,192.62Z"/>
    <path class="cls-7" d="M182.34,238a1.42,1.42,0,1,1,1.42,1.42A1.42,1.42,0,0,1,182.34,238Z"/>
    <path class="cls-7" d="M138.41,192.62V238"/>
    <path class="cls-7" d="M137,192.62a1.42,1.42,0,1,1,1.42,1.42A1.42,1.42,0,0,1,137,192.62Z"/>
    <path class="cls-7" d="M137,238a1.42,1.42,0,1,1,1.42,1.42A1.42,1.42,0,0,1,137,238Z"/>
  </g>
  <g>
    <line class="cls-3" x1="345.5" y1="193.7" x2="345.5" y2="236.89"/>
    <polygon class="cls-4" points="341.41 197.01 342.14 197.7 345.5 194.09 348.86 197.7 349.59 197.01 345.5 192.62 341.41 197.01"/>
    <polygon class="cls-4" points="341.41 233.57 342.14 232.89 345.5 236.5 348.86 232.89 349.59 233.57 345.5 237.97 341.41 233.57"/>
  </g>
  <g>
    <line class="cls-3" x1="307.67" y1="239.06" x2="307.67" y2="392.96"/>
    <polygon class="cls-4" points="303.58 242.37 304.31 243.05 307.67 239.44 311.02 243.05 311.76 242.37 307.67 237.97 303.58 242.37"/>
    <polygon class="cls-4" points="303.58 389.64 304.31 388.96 307.67 392.57 311.02 388.96 311.76 389.64 307.67 394.04 303.58 389.64"/>
  </g>
  <g>
    <line class="cls-3" x1="570.5" y1="171.02" x2="570.5" y2="191.53"/>
    <polygon class="cls-4" points="566.41 174.34 567.14 175.02 570.5 171.41 573.86 175.02 574.59 174.34 570.5 169.94 566.41 174.34"/>
    <polygon class="cls-4" points="566.41 188.22 567.14 187.54 570.5 191.15 573.86 187.54 574.59 188.22 570.5 192.62 566.41 188.22"/>
  </g>
  <line class="cls-3" x1="370.5" y1="169.94" x2="593.5" y2="169.94"/>
  <line class="cls-3" x1="370.5" y1="192.62" x2="593.5" y2="192.62"/>
</svg>
