<svg id="Layer_1" data-name="Layer 1" xmlns="http://www.w3.org/2000/svg" width="250" height="250" viewBox="0 0 250 250">
  <defs>
    <style>
      .cls-1, .cls-2 {
        fill: none;
        stroke-linecap: round;
      }

      .cls-1 {
        stroke: #bfbfbf;
        stroke-linejoin: round;
        stroke-width: 3px;
      }

      .cls-2 {
        stroke: #000;
        stroke-miterlimit: 10;
      }
    </style>
  </defs>
  <title>jointType</title>
  <g>
    <path id="joint" class="cls-1" d="M25,25S45,63.75,45,125,25,225,25,225"/>
    <path id="joint-2" class="cls-1" d="M225,25s-20,38.75-20,100,20,100,20,100"/>
    <path id="joint_1" data-name="joint 1" class="cls-2" d="M225,25h0"/>
    <path id="joint_1_1" data-name="joint 1 1" class="cls-2" d="M225,225h0"/>
    <path id="joint_1_2_1" data-name="joint 1 2 1" class="cls-2" d="M213.57,192.77C219,213.19,224.9,224.77,225,225"/>
    <path class="cls-2" d="M207.11,159.16l0.09,0.46a1.42,1.42,0,0,1-1.12,1.66l-1.39.27a1.42,1.42,0,0,1-1.66-1.12l-0.36-1.86a4.25,4.25,0,0,0-5-3.38h0l-3.62.7a11.91,11.91,0,0,0-9.45,13.94l4.1,21.36a11.91,11.91,0,0,0,13.94,9.45l3.62-.7a4.25,4.25,0,0,0,3.38-5v0l-0.36-1.86a1.42,1.42,0,0,1,1.12-1.66l1.39-.27a1.42,1.42,0,0,1,1.66,1.12l0.09,0.46"/>
    <path id="joint_1_2_3" data-name="joint 1 2 3" class="cls-2" d="M205,125a275.59,275.59,0,0,0,2.11,34.16"/>
    <path class="cls-2" d="M207.11,90.83V91.3a1.42,1.42,0,0,1-1.5,1.33l-1.41-.09a1.42,1.42,0,0,1-1.33-1.5L203,89.16a4.25,4.25,0,0,0-4-4.51h0l-3.68-.23A11.91,11.91,0,0,0,182.7,95.57l-1.34,21.71a11.91,11.91,0,0,0,11.15,12.62l3.68,0.23a4.25,4.25,0,0,0,4.51-4v0l0.12-1.89a1.42,1.42,0,0,1,1.5-1.33L203.7,123a1.42,1.42,0,0,1,1.33,1.5V125"/>
    <path id="joint_1_2_5" data-name="joint 1 2 5" class="cls-2" d="M213.57,57.22a257.13,257.13,0,0,0-6.46,33.61"/>
    <path class="cls-2" d="M225,25l-0.16.45a1.42,1.42,0,0,1-1.81.86l-1.34-.47a1.42,1.42,0,0,1-.86-1.81l0.63-1.78a4.25,4.25,0,0,0-2.58-5.43h0l-3.47-1.23a11.91,11.91,0,0,0-15.2,7.24l-7.26,20.47a11.91,11.91,0,0,0,7.24,15.2l3.47,1.23a4.25,4.25,0,0,0,5.43-2.58h0l0.63-1.78a1.42,1.42,0,0,1,1.81-.86l1.34,0.5a1.42,1.42,0,0,1,.86,1.81l-0.16.45"/>
    <path id="joint_1-2" data-name="joint 1-2" class="cls-2" d="M25,25h0"/>
    <path id="joint_1_1-2" data-name="joint 1 1-2" class="cls-2" d="M25,225h0"/>
    <path class="cls-2" d="M36.43,192.77l-0.16.45a1.42,1.42,0,0,0,.86,1.81l1.34,0.47a1.42,1.42,0,0,0,1.81-.86l0.63-1.78a4.25,4.25,0,0,1,5.42-2.59h0l3.47,1.23a11.91,11.91,0,0,1,7.24,15.2l-7.26,20.48a11.91,11.91,0,0,1-15.2,7.24l-3.47-1.23a4.25,4.25,0,0,1-2.59-5.42h0L29.17,226a1.42,1.42,0,0,0-.86-1.81l-1.31-.5a1.42,1.42,0,0,0-1.81.86L25,225"/>
    <path id="joint_1_2_2" data-name="joint 1 2 2" class="cls-2" d="M42.89,159.16a257.19,257.19,0,0,1-6.46,33.61"/>
    <path class="cls-2" d="M45,125v0.47A1.42,1.42,0,0,0,46.3,127l1.41,0.09a1.42,1.42,0,0,0,1.5-1.33l0.12-1.89a4.25,4.25,0,0,1,4.48-4h0l3.68,0.23a11.91,11.91,0,0,1,11.15,12.62l-1.34,21.71a11.91,11.91,0,0,1-12.62,11.15L51,165.33a4.25,4.25,0,0,1-4-4.48v0L47.16,159a1.42,1.42,0,0,0-1.33-1.5l-1.41-.09a1.42,1.42,0,0,0-1.5,1.33v0.47"/>
    <path id="joint_1_2_4" data-name="joint 1 2 4" class="cls-2" d="M42.89,90.83A275.59,275.59,0,0,1,45,125"/>
    <path class="cls-2" d="M36.43,57.22l0.09,0.46a1.42,1.42,0,0,0,1.66,1.12l1.39-.27a1.42,1.42,0,0,0,1.12-1.66L40.34,55a4.25,4.25,0,0,1,3.34-5h0l3.62-.7a11.91,11.91,0,0,1,13.94,9.45l4.1,21.36A11.91,11.91,0,0,1,55.92,94l-3.62.7a4.25,4.25,0,0,1-5-3.34v0L47,89.57a1.42,1.42,0,0,0-1.66-1.12L44,88.71a1.42,1.42,0,0,0-1.12,1.66l0.09,0.46"/>
    <path id="joint_1_2" data-name="joint 1 2" class="cls-2" d="M25,25c0.1,0.2,6,11.81,11.43,32.23"/>
  </g>
</svg>
