<?xml version="1.0" encoding="utf-8"?>
<!-- Generator: Adobe Illustrator 21.0.2, SVG Export Plug-In . SVG Version: 6.00 Build 0)  -->
<svg version="1.1" id="Layer_1" xmlns="http://www.w3.org/2000/svg" xmlns:xlink="http://www.w3.org/1999/xlink" x="0px" y="0px"
	 viewBox="0 0 250 250" style="enable-background:new 0 0 250 250;" xml:space="preserve">
<style type="text/css">
	.st0{fill:none;stroke:#BFBFBF;stroke-width:3;stroke-linecap:round;stroke-linejoin:round;}
	.st1{fill:none;stroke:#000000;stroke-linecap:round;stroke-miterlimit:10;}
</style>
<title>jointType</title>
<path id="joint" class="st0" d="M33.9,25v200"/>
<path id="joint-2" class="st0" d="M213.9,25v200"/>
<path class="st1" d="M33.9,53.3h4.3v-2.5c0-0.8,0.6-1.4,1.4-1.4c0.1,0,0.2,0,0.3,0l20,4.5c3.9,0.9,6.6,4.3,6.6,8.3v16.2
	c0,4-2.8,7.4-6.6,8.3l-20,4.5c-0.8,0.2-1.5-0.3-1.7-1.1c0-0.1,0-0.2,0-0.3v-2.5h-4.3"/>
<path class="st1" d="M33.9,162.6h4.3v-2.5c0-0.8,0.6-1.4,1.4-1.4c0.1,0,0.2,0,0.3,0l20,4.5c3.9,0.9,6.6,4.3,6.6,8.3v16.2
	c0,4-2.8,7.4-6.7,8.3l-20,4.5c-0.8,0.2-1.5-0.3-1.7-1.1c0-0.1,0-0.2,0-0.3v-2.5h-4.2"/>
<path class="st1" d="M33.9,87.4v75.3"/>
<path class="st1" d="M33.9,25v28.3"/>
<path class="st1" d="M33.9,225v-28.3"/>
<path class="st1" d="M213.9,25l-14,8c-8.8,5-14.3,14.4-14.3,24.6v134.8c0,10.2,5.4,19.6,14.3,24.6l14,8"/>
<g>
	<path class="st1" d="M216.1,55.5"/>
	<line class="st1" x1="213.8" y1="53.5" x2="213.8" y2="49.4"/>
	<line class="st1" x1="213.8" y1="91.3" x2="213.8" y2="87.2"/>
	<path class="st1" d="M213.8,53.5c-1.1,0.1-1.9,0.9-2,2v29.8c0.1,1.1,0.9,1.9,2,2"/>
</g>
<g>
	<path class="st1" d="M216.1,164.9"/>
	<line class="st1" x1="213.8" y1="162.9" x2="213.8" y2="158.9"/>
	<line class="st1" x1="213.8" y1="200.7" x2="213.8" y2="196.7"/>
	<path class="st1" d="M213.8,162.9c-1.1,0.1-1.9,0.9-2,2v29.8c0.1,1.1,0.9,1.9,2,2"/>
</g>
</svg>
