<svg id="Layer_1" data-name="Layer 1" xmlns="http://www.w3.org/2000/svg" width="250" height="250" viewBox="0 0 250 250">
  <defs>
    <style>
      .cls-1, .cls-2 {
        fill: none;
        stroke-linecap: round;
      }

      .cls-1 {
        stroke: #bfbfbf;
        stroke-linejoin: round;
        stroke-width: 3px;
      }

      .cls-2 {
        stroke: #000;
        stroke-miterlimit: 10;
      }
    </style>
  </defs>
  <title>jointType</title>
  <g>
    <path id="joint" class="cls-1" d="M43.44,25s20,38.75,20,100-20,100-20,100"/>
    <path id="joint-2" class="cls-1" d="M228.44,25s-20,38.75-20,100,20,100,20,100"/>
    <path id="joint_1" data-name="joint 1" class="cls-2" d="M228.44,25s-20,38.75-20,100,20,100,20,100"/>
    <path class="cls-2" d="M238.41,175.19l5.95,21.88"/>
    <path class="cls-2" d="M237.7,175.19a0.71,0.71,0,1,1,.71.71,0.71,0.71,0,0,1-.71-0.71h0Z"/>
    <path class="cls-2" d="M243.64,197.08a0.71,0.71,0,1,1,.71.71,0.71,0.71,0,0,1-.71-0.71h0Z"/>
    <path class="cls-2" d="M233.23,113.66v22.68"/>
    <path class="cls-2" d="M232.52,113.66a0.71,0.71,0,1,1,.71.71,0.71,0.71,0,0,1-.71-0.71h0Z"/>
    <path class="cls-2" d="M232.52,136.34a0.71,0.71,0,1,1,.71.71,0.71,0.71,0,0,1-.71-0.71h0Z"/>
    <path class="cls-2" d="M244.35,52.92L238.4,74.8"/>
    <path class="cls-2" d="M243.64,52.92a0.71,0.71,0,1,1,.71.71,0.71,0.71,0,0,1-.71-0.71h0Z"/>
    <path class="cls-2" d="M237.7,74.81a0.71,0.71,0,1,1,.71.71,0.71,0.71,0,0,1-.71-0.71h0Z"/>
    <path id="joint_1-2" data-name="joint 1-2" class="cls-2" d="M43.44,25h0"/>
    <path id="joint_1_1" data-name="joint 1 1" class="cls-2" d="M43.44,225h0"/>
    <path class="cls-2" d="M57.51,181.72l65.73,17.86L118,190.42a2.27,2.27,0,0,1,2.56-3.32l15.09,4.1a3.78,3.78,0,0,1,2.29,1.77l7.19,12.56-5.25-9.16a2.27,2.27,0,0,1,2.56-3.32l15.09,4.1a3.78,3.78,0,0,1,2.29,1.77l11.4,19.91a7.56,7.56,0,0,1-2.8,10.32h0l-19.91,11.4a3.78,3.78,0,0,1-2.87.37l-15.09-4.1a2.27,2.27,0,0,1-.53-4.16l9.16-5.25-12.56,7.19a3.78,3.78,0,0,1-2.87.37l-15.09-4.1a2.27,2.27,0,0,1-.53-4.16l9.16-5.25L51.72,203.65"/>
    <path id="joint_1_2_1" data-name="joint 1 2 1" class="cls-2" d="M51.72,203.65A150.5,150.5,0,0,1,43.44,225"/>
    <path id="joint_1_2_1-2" data-name="joint 1 2 1-2" class="cls-2" d="M61.33,159.16c-1,8.2-2.35,15.74-3.82,22.56"/>
    <path class="cls-2" d="M33.48,175.19l-6,21.88"/>
    <path class="cls-2" d="M32.77,175.19a0.71,0.71,0,1,1,.71.71,0.71,0.71,0,0,1-.71-0.71h0Z"/>
    <path class="cls-2" d="M26.82,197.08a0.71,0.71,0,1,1,.71.71,0.71,0.71,0,0,1-.71-0.71h0Z"/>
    <path class="cls-2" d="M11.59,169.25L5.65,191.13"/>
    <path class="cls-2" d="M10.88,169.25a0.71,0.71,0,1,1,.71.71,0.71,0.71,0,0,1-.71-0.71h0Z"/>
    <path class="cls-2" d="M4.94,191.13a0.71,0.71,0,1,1,.71.71,0.71,0.71,0,0,1-.71-0.71h0Z"/>
    <path class="cls-2" d="M63.21,113.66h68l-7.47-7.47a2.27,2.27,0,0,1,1.6-3.87H141a3.78,3.78,0,0,1,2.67,1.11l10.23,10.23-7.47-7.47a2.27,2.27,0,0,1,1.6-3.87h15.64a3.78,3.78,0,0,1,2.67,1.11l16.23,16.23a7.56,7.56,0,0,1,0,10.69l-16.23,16.23a3.78,3.78,0,0,1-2.67,1.11H148.06a2.27,2.27,0,0,1-1.6-3.87l7.47-7.47L143.7,146.58a3.78,3.78,0,0,1-2.67,1.11H125.38a2.27,2.27,0,0,1-1.6-3.87l7.47-7.47h-68"/>
    <path id="joint_1_2_2" data-name="joint 1 2 2" class="cls-2" d="M63.21,136.34c-0.33,8.07-1,15.69-1.88,22.82"/>
    <path id="joint_1_2_2-2" data-name="joint 1 2 2-2" class="cls-2" d="M61.33,90.84c0.89,7.13,1.55,14.75,1.88,22.82"/>
    <path class="cls-2" d="M38.65,113.66v22.68"/>
    <path class="cls-2" d="M38,113.66a0.71,0.71,0,1,1,.71.71h0A0.71,0.71,0,0,1,38,113.66Z"/>
    <path class="cls-2" d="M38,136.34a0.71,0.71,0,1,1,.71.71,0.71,0.71,0,0,1-.71-0.71h0Z"/>
    <path class="cls-2" d="M16,113.66v22.68"/>
    <path class="cls-2" d="M15.27,113.66a0.71,0.71,0,1,1,.71.71h0A0.71,0.71,0,0,1,15.27,113.66Z"/>
    <path class="cls-2" d="M15.27,136.34A0.71,0.71,0,1,1,16,137h0A0.71,0.71,0,0,1,15.27,136.34Z"/>
    <path class="cls-2" d="M51.72,46.35L117.3,28.53l-9.16-5.25a2.27,2.27,0,0,1,.53-4.16L123.76,15a3.78,3.78,0,0,1,2.87.37l12.56,7.19L130,17.34a2.27,2.27,0,0,1,.53-4.16l15.09-4.1a3.78,3.78,0,0,1,2.87.37l19.91,11.4a7.56,7.56,0,0,1,2.8,10.32h0L159.8,51.08a3.78,3.78,0,0,1-2.29,1.77L142.44,57a2.27,2.27,0,0,1-2.56-3.32l5.25-9.16L137.94,57a3.78,3.78,0,0,1-2.29,1.77l-15.09,4.1A2.27,2.27,0,0,1,118,59.58l5.25-9.16L57.51,68.28"/>
    <path id="joint_1_2" data-name="joint 1 2" class="cls-2" d="M57.51,68.28c1.49,6.82,2.8,14.36,3.82,22.56"/>
    <path id="joint_1_2-2" data-name="joint 1 2-2" class="cls-2" d="M43.44,25a150.47,150.47,0,0,1,8.28,21.35"/>
    <path class="cls-2" d="M27.53,52.92L33.48,74.8"/>
    <path class="cls-2" d="M26.82,52.92a0.71,0.71,0,1,1,.71.71h0A0.71,0.71,0,0,1,26.82,52.92Z"/>
    <path class="cls-2" d="M32.77,74.81a0.71,0.71,0,1,1,.71.71h0A0.71,0.71,0,0,1,32.77,74.81Z"/>
    <path class="cls-2" d="M5.65,58.87l6,21.88"/>
    <path class="cls-2" d="M4.94,58.87a0.71,0.71,0,1,1,.71.71h0A0.71,0.71,0,0,1,4.94,58.87Z"/>
    <path class="cls-2" d="M10.88,80.75a0.71,0.71,0,1,1,.71.71h0A0.71,0.71,0,0,1,10.88,80.75Z"/>
  </g>
</svg>
