<svg id="Layer_1" data-name="Layer 1" xmlns="http://www.w3.org/2000/svg" width="250" height="250" viewBox="0 0 250 250">
  <defs>
    <style>
      .cls-1, .cls-2 {
        fill: none;
        stroke-linecap: round;
      }

      .cls-1 {
        stroke: #bfbfbf;
        stroke-linejoin: round;
        stroke-width: 3px;
      }

      .cls-2 {
        stroke: #000;
        stroke-miterlimit: 10;
      }
    </style>
  </defs>
  <title>jointType</title>
  <g>
    <path id="joint" class="cls-1" d="M109.91,25V225"/>
    <path id="joint_1" data-name="joint 1" class="cls-2" d="M109.91,25h0"/>
    <path id="joint_1_1" data-name="joint 1 1" class="cls-2" d="M109.91,225h0"/>
    <path class="cls-2" d="M109.91,163.66h22.68l-7.47-7.47a2.27,2.27,0,0,1,1.6-3.87h15.64a3.78,3.78,0,0,1,2.67,1.11l10.23,10.23-7.47-7.47a2.27,2.27,0,0,1,1.6-3.87H165a3.78,3.78,0,0,1,2.67,1.11l10.23,10.23-7.47-7.47a2.27,2.27,0,0,1,1.6-3.87h15.64a3.78,3.78,0,0,1,2.67,1.11l10.23,10.23-7.47-7.47a2.27,2.27,0,0,1,1.6-3.87h15.64a3.78,3.78,0,0,1,2.67,1.11l16.23,16.23a7.56,7.56,0,0,1,0,10.69l-16.23,16.23a3.78,3.78,0,0,1-2.67,1.11H194.76a2.27,2.27,0,0,1-1.6-3.87l7.47-7.47-10.23,10.23a3.78,3.78,0,0,1-2.67,1.11H172.08a2.27,2.27,0,0,1-1.6-3.87l7.47-7.47-10.23,10.23a3.78,3.78,0,0,1-2.67,1.11H149.4a2.27,2.27,0,0,1-1.6-3.87l7.47-7.47L145,196.57a3.78,3.78,0,0,1-2.67,1.11H126.73a2.27,2.27,0,0,1-1.6-3.87l7.47-7.47H109.91"/>
    <path id="joint_1_2_1" data-name="joint 1 2 1" class="cls-2" d="M109.91,186.34V225"/>
    <path id="joint_1_2_1-2" data-name="joint 1 2 1" class="cls-2" d="M109.91,125v38.66"/>
    <path class="cls-2" d="M87.23,163.66v22.68"/>
    <path class="cls-2" d="M86.53,163.66a0.71,0.71,0,1,1,.71.71A0.71,0.71,0,0,1,86.53,163.66Z"/>
    <path class="cls-2" d="M86.53,186.34a0.71,0.71,0,1,1,.71.71A0.71,0.71,0,0,1,86.53,186.34Z"/>
    <path class="cls-2" d="M64.56,163.66v22.68"/>
    <path class="cls-2" d="M63.85,163.66a0.71,0.71,0,1,1,.71.71A0.71,0.71,0,0,1,63.85,163.66Z"/>
    <path class="cls-2" d="M63.85,186.34a0.71,0.71,0,1,1,.71.71A0.71,0.71,0,0,1,63.85,186.34Z"/>
    <path class="cls-2" d="M41.88,163.66v22.68"/>
    <path class="cls-2" d="M41.17,163.66a0.71,0.71,0,1,1,.71.71A0.71,0.71,0,0,1,41.17,163.66Z"/>
    <path class="cls-2" d="M41.17,186.34a0.71,0.71,0,1,1,.71.71A0.71,0.71,0,0,1,41.17,186.34Z"/>
    <path class="cls-2" d="M19.2,163.66v22.68"/>
    <path class="cls-2" d="M18.49,163.66a0.71,0.71,0,1,1,.71.71A0.71,0.71,0,0,1,18.49,163.66Z"/>
    <path class="cls-2" d="M18.49,186.34a0.71,0.71,0,1,1,.71.71A0.71,0.71,0,0,1,18.49,186.34Z"/>
    <path class="cls-2" d="M109.91,63.66h22.68l-7.47-7.47a2.27,2.27,0,0,1,1.6-3.87h15.64A3.78,3.78,0,0,1,145,53.43l10.23,10.23-7.47-7.47a2.27,2.27,0,0,1,1.6-3.87H165a3.78,3.78,0,0,1,2.67,1.11l10.23,10.23-7.47-7.47a2.27,2.27,0,0,1,1.6-3.87h15.64a3.78,3.78,0,0,1,2.67,1.11l10.23,10.23-7.47-7.47a2.27,2.27,0,0,1,1.6-3.87h15.64a3.78,3.78,0,0,1,2.67,1.11l16.23,16.23a7.56,7.56,0,0,1,0,10.69L213.07,96.57a3.78,3.78,0,0,1-2.67,1.11H194.76a2.27,2.27,0,0,1-1.6-3.87l7.47-7.47L190.39,96.57a3.78,3.78,0,0,1-2.67,1.11H172.08a2.27,2.27,0,0,1-1.6-3.87l7.47-7.47L167.71,96.57A3.78,3.78,0,0,1,165,97.68H149.4a2.27,2.27,0,0,1-1.6-3.87l7.47-7.47L145,96.57a3.78,3.78,0,0,1-2.67,1.11H126.73a2.27,2.27,0,0,1-1.6-3.87l7.47-7.47H109.91"/>
    <path id="joint_1_2" data-name="joint 1 2" class="cls-2" d="M109.91,86.34V125"/>
    <path id="joint_1_2-2" data-name="joint 1 2" class="cls-2" d="M109.91,25V63.66"/>
    <path class="cls-2" d="M87.23,63.66V86.34"/>
    <path class="cls-2" d="M86.53,63.66a0.71,0.71,0,1,1,.71.71A0.71,0.71,0,0,1,86.53,63.66Z"/>
    <path class="cls-2" d="M86.53,86.34a0.71,0.71,0,1,1,.71.71A0.71,0.71,0,0,1,86.53,86.34Z"/>
    <path class="cls-2" d="M64.56,63.66V86.34"/>
    <path class="cls-2" d="M63.85,63.66a0.71,0.71,0,1,1,.71.71A0.71,0.71,0,0,1,63.85,63.66Z"/>
    <path class="cls-2" d="M63.85,86.34a0.71,0.71,0,1,1,.71.71A0.71,0.71,0,0,1,63.85,86.34Z"/>
    <path class="cls-2" d="M41.88,63.66V86.34"/>
    <path class="cls-2" d="M41.17,63.66a0.71,0.71,0,1,1,.71.71A0.71,0.71,0,0,1,41.17,63.66Z"/>
    <path class="cls-2" d="M41.17,86.34a0.71,0.71,0,1,1,.71.71A0.71,0.71,0,0,1,41.17,86.34Z"/>
    <path class="cls-2" d="M19.2,63.66V86.34"/>
    <path class="cls-2" d="M18.49,63.66a0.71,0.71,0,1,1,.71.71A0.71,0.71,0,0,1,18.49,63.66Z"/>
    <path class="cls-2" d="M18.49,86.34a0.71,0.71,0,1,1,.71.71A0.71,0.71,0,0,1,18.49,86.34Z"/>
  </g>
</svg>
