<svg id="Layer_1" data-name="Layer 1" xmlns="http://www.w3.org/2000/svg" width="250" height="250" viewBox="0 0 250 250">
  <defs>
    <style>
      .cls-1, .cls-2 {
        fill: none;
        stroke-linecap: round;
      }

      .cls-1 {
        stroke: #bfbfbf;
        stroke-linejoin: round;
        stroke-width: 3px;
      }

      .cls-2 {
        stroke: #000;
        stroke-miterlimit: 10;
      }
    </style>
  </defs>
  <title>jointType</title>
  <g>
    <path id="joint" class="cls-1" d="M25,25S45,63.74,45,125,25,225,25,225"/>
    <path id="joint-2" class="cls-1" d="M225,25s-20,38.75-20,100,20,100,20,100"/>
    <path class="cls-2" d="M225,25l-20.15-10.4c-4.3,10.61-8.59,21.21-11.79,31.68a224.49,224.49,0,0,0-6.94,31.24,313.45,313.45,0,0,0-3.38,31.62,303.91,303.91,0,0,0,0,31.73,265.47,265.47,0,0,0,3.38,31.62c1.8,10.48,4.37,20.86,6.94,31.24s7.18,21,11.79,31.68L225,225"/>
    <path class="cls-2" d="M217.95,38.53A1.42,1.42,0,1,1,219.37,40a1.42,1.42,0,0,1-1.42-1.46v0Z"/>
    <path class="cls-2" d="M209.85,66.73a1.42,1.42,0,1,1,1.42,1.42h0A1.42,1.42,0,0,1,209.85,66.73Z"/>
    <path class="cls-2" d="M205.13,95.69a1.42,1.42,0,1,1,1.42,1.42h0A1.42,1.42,0,0,1,205.13,95.69Z"/>
    <path class="cls-2" d="M203.58,125a1.42,1.42,0,1,1,1.42,1.42h0A1.42,1.42,0,0,1,203.58,125Z"/>
    <path class="cls-2" d="M205.13,154.3a1.42,1.42,0,1,1,1.42,1.42h0A1.42,1.42,0,0,1,205.13,154.3Z"/>
    <path class="cls-2" d="M209.85,183.25a1.42,1.42,0,1,1,1.42,1.42h0A1.42,1.42,0,0,1,209.85,183.25Z"/>
    <path class="cls-2" d="M217.95,211.46a1.42,1.42,0,1,1,1.42,1.42h0A1.42,1.42,0,0,1,217.95,211.46Z"/>
    <path class="cls-2" d="M25,25l20.15-10.4c4.3,10.61,8.59,21.21,11.79,31.68a224.49,224.49,0,0,1,6.94,31.24,313.45,313.45,0,0,1,3.38,31.62,303.91,303.91,0,0,1,0,31.73,265.47,265.47,0,0,1-3.38,31.62c-1.8,10.48-4.37,20.86-6.94,31.24s-7.18,21-11.79,31.68L25,225"/>
    <path class="cls-2" d="M29.22,38.53A1.42,1.42,0,1,1,30.63,40a1.42,1.42,0,0,1-1.41-1.46v0Z"/>
    <path class="cls-2" d="M37.32,66.73a1.42,1.42,0,1,1,1.42,1.42h0A1.42,1.42,0,0,1,37.32,66.73Z"/>
    <path class="cls-2" d="M42,95.69a1.42,1.42,0,1,1,1.42,1.42h0A1.42,1.42,0,0,1,42,95.69Z"/>
    <path class="cls-2" d="M43.58,125A1.42,1.42,0,1,1,45,126.41h0A1.42,1.42,0,0,1,43.58,125Z"/>
    <path class="cls-2" d="M42,154.3a1.42,1.42,0,1,1,1.42,1.42h0A1.42,1.42,0,0,1,42,154.3Z"/>
    <path class="cls-2" d="M37.32,183.25a1.42,1.42,0,1,1,1.42,1.42h0A1.42,1.42,0,0,1,37.32,183.25Z"/>
    <path class="cls-2" d="M29.22,211.46a1.42,1.42,0,1,1,1.42,1.42h0A1.42,1.42,0,0,1,29.22,211.46Z"/>
  </g>
</svg>
