<svg id="Layer_1" data-name="Layer 1" xmlns="http://www.w3.org/2000/svg" width="250" height="250" viewBox="0 0 250 250">
  <defs>
    <style>
      .cls-1, .cls-2 {
        fill: none;
        stroke-linecap: round;
      }

      .cls-1 {
        stroke: #bfbfbf;
        stroke-linejoin: round;
        stroke-width: 3px;
      }

      .cls-2 {
        stroke: #000;
        stroke-miterlimit: 10;
      }
    </style>
  </defs>
  <title>jointType</title>
  <g>
    <path id="joint" class="cls-1" d="M44.25,25s20,38.75,20,100-20,100-20,100"/>
    <path id="joint-2" class="cls-1" d="M244.25,25s-20,38.75-20,100,20,100,20,100"/>
    <path class="cls-2" d="M244.25,25L224.1,14.59c-4.3,10.61-8.59,21.21-11.79,31.68a224.49,224.49,0,0,0-6.94,31.24A313.45,313.45,0,0,0,202,109.13a303.91,303.91,0,0,0,0,31.73,265.47,265.47,0,0,0,3.38,31.62c1.8,10.48,4.37,20.86,6.94,31.24s7.18,21,11.79,31.68L244.25,225"/>
    <path class="cls-2" d="M232.33,181.13L238.28,203"/>
    <path class="cls-2" d="M231.62,181.13a0.71,0.71,0,1,1,.71.71,0.71,0.71,0,0,1-.71-0.71h0Z"/>
    <path class="cls-2" d="M237.57,203a0.71,0.71,0,1,1,.71.71,0.71,0.71,0,0,1-.71-0.71h0Z"/>
    <path class="cls-2" d="M226.36,113.66v22.68"/>
    <path class="cls-2" d="M225.65,113.66a0.71,0.71,0,1,1,.71.71,0.71,0.71,0,0,1-.71-0.71h0Z"/>
    <path class="cls-2" d="M225.65,136.33a0.71,0.71,0,1,1,.71.71,0.71,0.71,0,0,1-.71-0.71h0Z"/>
    <path class="cls-2" d="M238.28,47l-5.95,21.88"/>
    <path class="cls-2" d="M237.57,47a0.71,0.71,0,1,1,.71.71,0.71,0.71,0,0,1-.71-0.71h0Z"/>
    <path class="cls-2" d="M231.62,68.85a0.71,0.71,0,1,1,.71.71,0.71,0.71,0,0,1-.71-0.71h0Z"/>
    <path id="joint_1" data-name="joint 1" class="cls-2" d="M44.25,25h0"/>
    <path id="joint_1_1" data-name="joint 1 1" class="cls-2" d="M44.25,225h0"/>
    <path class="cls-2" d="M58.32,181.71l22,6L75,178.52a2.27,2.27,0,0,1,2.56-3.32l15.09,4.1A3.78,3.78,0,0,1,95,181.07l7.19,12.56-5.25-9.16a2.27,2.27,0,0,1,2.56-3.32l15.09,4.1a3.78,3.78,0,0,1,2.29,1.77l11.4,19.91a7.56,7.56,0,0,1-2.8,10.32h0l-19.91,11.4a3.78,3.78,0,0,1-2.87.37l-15.09-4.1a2.27,2.27,0,0,1-.53-4.16l9.16-5.25L83.68,222.7a3.78,3.78,0,0,1-2.87.37L65.71,219a2.27,2.27,0,0,1-.53-4.16l9.16-5.25-21.81-5.93"/>
    <path id="joint_1_2_1" data-name="joint 1 2 1" class="cls-2" d="M52.53,203.64A150.5,150.5,0,0,1,44.25,225"/>
    <path id="joint_1_2_1-2" data-name="joint 1 2 1-2" class="cls-2" d="M62.14,159.16c-1,8.2-2.35,15.74-3.82,22.56"/>
    <path class="cls-2" d="M34.29,175.19l-6,21.88"/>
    <path class="cls-2" d="M33.58,175.19a0.71,0.71,0,1,1,.71.71,0.71,0.71,0,0,1-.71-0.71h0Z"/>
    <path class="cls-2" d="M27.63,197.07a0.71,0.71,0,1,1,.71.71,0.71,0.71,0,0,1-.71-0.71h0Z"/>
    <path class="cls-2" d="M12.4,169.24L6.46,191.13"/>
    <path class="cls-2" d="M11.69,169.24a0.71,0.71,0,1,1,.71.71,0.71,0.71,0,0,1-.71-0.71h0Z"/>
    <path class="cls-2" d="M5.75,191.13a0.71,0.71,0,1,1,.71.71,0.71,0.71,0,0,1-.71-0.71h0Z"/>
    <path class="cls-2" d="M64,113.66H86.7l-7.47-7.47a2.27,2.27,0,0,1,1.6-3.87H96.47a3.78,3.78,0,0,1,2.67,1.11l10.23,10.23-7.47-7.47a2.27,2.27,0,0,1,1.6-3.87h15.64a3.78,3.78,0,0,1,2.67,1.11L138,119.66a7.56,7.56,0,0,1,0,10.69l-16.23,16.23a3.78,3.78,0,0,1-2.67,1.11H103.51a2.27,2.27,0,0,1-1.6-3.87l7.47-7.47L99.14,146.57a3.78,3.78,0,0,1-2.67,1.11H80.83a2.27,2.27,0,0,1-1.6-3.87l7.47-7.47H64"/>
    <path id="joint_1_2_2" data-name="joint 1 2 2" class="cls-2" d="M64,136.33c-0.33,8.07-1,15.69-1.88,22.82"/>
    <path id="joint_1_2_2-2" data-name="joint 1 2 2-2" class="cls-2" d="M62.14,90.83C63,98,63.69,105.58,64,113.66"/>
    <path class="cls-2" d="M39.46,113.66v22.68"/>
    <path class="cls-2" d="M38.76,113.66a0.71,0.71,0,1,1,.71.71h0A0.71,0.71,0,0,1,38.76,113.66Z"/>
    <path class="cls-2" d="M38.76,136.33a0.71,0.71,0,1,1,.71.71,0.71,0.71,0,0,1-.71-0.71h0Z"/>
    <path class="cls-2" d="M16.79,113.66v22.68"/>
    <path class="cls-2" d="M16.08,113.66a0.71,0.71,0,1,1,.71.71h0A0.71,0.71,0,0,1,16.08,113.66Z"/>
    <path class="cls-2" d="M16.08,136.33a0.71,0.71,0,1,1,.71.71,0.71,0.71,0,0,1-.71-0.71h0Z"/>
    <path class="cls-2" d="M52.53,46.34l21.81-5.93-9.16-5.25A2.27,2.27,0,0,1,65.71,31l15.09-4.1a3.78,3.78,0,0,1,2.87.37l12.56,7.19L87.07,29.2A2.27,2.27,0,0,1,87.6,25l15.08-4a3.78,3.78,0,0,1,2.87.37l19.91,11.4a7.56,7.56,0,0,1,2.8,10.32h0L116.86,63a3.78,3.78,0,0,1-2.29,1.77l-15.09,4.1a2.27,2.27,0,0,1-2.56-3.32l5.25-9.16L95,68.91a3.78,3.78,0,0,1-2.29,1.77L77.6,74.78A2.27,2.27,0,0,1,75,71.46l5.25-9.16-22,6"/>
    <path id="joint_1_2" data-name="joint 1 2" class="cls-2" d="M58.32,68.27c1.47,6.83,2.79,14.37,3.82,22.56"/>
    <path id="joint_1_2-2" data-name="joint 1 2-2" class="cls-2" d="M44.25,25a150.47,150.47,0,0,1,8.28,21.35"/>
    <path class="cls-2" d="M28.34,52.91l6,21.88"/>
    <path class="cls-2" d="M27.63,52.91a0.71,0.71,0,1,1,.71.71h0A0.71,0.71,0,0,1,27.63,52.91Z"/>
    <path class="cls-2" d="M33.58,74.8a0.71,0.71,0,1,1,.71.71h0A0.71,0.71,0,0,1,33.58,74.8Z"/>
    <path class="cls-2" d="M6.46,58.86L12.4,80.74"/>
    <path class="cls-2" d="M5.75,58.86a0.71,0.71,0,1,1,.71.71h0A0.71,0.71,0,0,1,5.75,58.86Z"/>
    <path class="cls-2" d="M11.69,80.74a0.71,0.71,0,1,1,.71.71h0A0.71,0.71,0,0,1,11.69,80.74Z"/>
  </g>
</svg>
